# xmcd
#
# Track frame offsets: 
#        150
#        15404
#        25774
#        41261
#        55841
#        70933
#        84609
#        102672
#
# Disc length: 1571 seconds
#
# Revision: 0
# Processed by: cddbd v1.5.2PL0 Copyright (c) Steve Scherf et al.
# Submitted via: ExactAudioCopy v0.99pb4
#
DISCID=5c062108
DTITLE=Jay Willie Band - The Reel Deal
DYEAR=2011
DGENRE=Blues
TTITLE0=Jay Willie Band - Hey Hey baby
TTITLE1=Jay Willie Band - The Reel Deal
TTITLE2=Jay Willie Band - Rainin in my Heart
TTITLE3=Jay Willie Band - Mary Lou
TTITLE4=Jay Willie Band - Ain't Gonna Walk Your Dog Anymore
TTITLE5=Jay Willie Band - Liar
TTITLE6=Jay Willie Band - Stoop Down Baby
TTITLE7=Jay Willie Band - A Woman Named Trouble
EXTD=Jay Willie\nRobert Callahan\nTommy Shannon\nBobby T Torello
EXTT0=
EXTT1=
EXTT2=
EXTT3=
EXTT4=
EXTT5=
EXTT6=
EXTT7=
PLAYORDER=
